<svg id="mermaid-72077142-9206-437b-aa67-43ab5731df57" width="918.3713989257812" xmlns="http://www.w3.org/2000/svg" class="flowchart" style="max-width: 854.3713989257812px;" viewBox="-27.99999237060547 -28 918.3713989257812 1141.5" role="graphics-document document" aria-roledescription="flowchart-v2" xmlns:xlink="http://www.w3.org/1999/xlink" height="1141.5"><rect x="-27.99999237060547" y="-28" width="918.3713989257812" height="1141.5" fill="#191919"/><style>#mermaid-72077142-9206-437b-aa67-43ab5731df57{font-family:ui-sans-serif,-apple-system,BlinkMacSystemFont,"Segoe UI Variable Display","Segoe UI",Helvetica,"Apple Color Emoji","Noto Sans Arabic","Noto Sans Hebrew",Arial,sans-serif,"Segoe UI Emoji","Segoe UI Symbol";font-size:16px;fill:#ccc;}@keyframes edge-animation-frame{from{stroke-dashoffset:0;}}@keyframes dash{to{stroke-dashoffset:0;}}#mermaid-72077142-9206-437b-aa67-43ab5731df57 .edge-animation-slow{stroke-dasharray:9,5!important;stroke-dashoffset:900;animation:dash 50s linear infinite;stroke-linecap:round;}#mermaid-72077142-9206-437b-aa67-43ab5731df57 .edge-animation-fast{stroke-dasharray:9,5!important;stroke-dashoffset:900;animation:dash 20s linear infinite;stroke-linecap:round;}#mermaid-72077142-9206-437b-aa67-43ab5731df57 .error-icon{fill:#a44141;}#mermaid-72077142-9206-437b-aa67-43ab5731df57 .error-text{fill:#ddd;stroke:#ddd;}#mermaid-72077142-9206-437b-aa67-43ab5731df57 .edge-thickness-normal{stroke-width:1px;}#mermaid-72077142-9206-437b-aa67-43ab5731df57 .edge-thickness-thick{stroke-width:3.5px;}#mermaid-72077142-9206-437b-aa67-43ab5731df57 .edge-pattern-solid{stroke-dasharray:0;}#mermaid-72077142-9206-437b-aa67-43ab5731df57 .edge-thickness-invisible{stroke-width:0;fill:none;}#mermaid-72077142-9206-437b-aa67-43ab5731df57 .edge-pattern-dashed{stroke-dasharray:3;}#mermaid-72077142-9206-437b-aa67-43ab5731df57 .edge-pattern-dotted{stroke-dasharray:2;}#mermaid-72077142-9206-437b-aa67-43ab5731df57 .marker{fill:lightgrey;stroke:lightgrey;}#mermaid-72077142-9206-437b-aa67-43ab5731df57 .marker.cross{stroke:lightgrey;}#mermaid-72077142-9206-437b-aa67-43ab5731df57 svg{font-family:ui-sans-serif,-apple-system,BlinkMacSystemFont,"Segoe UI Variable Display","Segoe UI",Helvetica,"Apple Color Emoji","Noto Sans Arabic","Noto Sans Hebrew",Arial,sans-serif,"Segoe UI Emoji","Segoe UI Symbol";font-size:16px;}#mermaid-72077142-9206-437b-aa67-43ab5731df57 p{margin:0;}#mermaid-72077142-9206-437b-aa67-43ab5731df57 .label{font-family:ui-sans-serif,-apple-system,BlinkMacSystemFont,"Segoe UI Variable Display","Segoe UI",Helvetica,"Apple Color Emoji","Noto Sans Arabic","Noto Sans Hebrew",Arial,sans-serif,"Segoe UI Emoji","Segoe UI Symbol";color:#ccc;}#mermaid-72077142-9206-437b-aa67-43ab5731df57 .cluster-label text{fill:#F9FFFE;}#mermaid-72077142-9206-437b-aa67-43ab5731df57 .cluster-label span{color:#F9FFFE;}#mermaid-72077142-9206-437b-aa67-43ab5731df57 .cluster-label span p{background-color:transparent;}#mermaid-72077142-9206-437b-aa67-43ab5731df57 .label text,#mermaid-72077142-9206-437b-aa67-43ab5731df57 span{fill:#ccc;color:#ccc;}#mermaid-72077142-9206-437b-aa67-43ab5731df57 .node rect,#mermaid-72077142-9206-437b-aa67-43ab5731df57 .node circle,#mermaid-72077142-9206-437b-aa67-43ab5731df57 .node ellipse,#mermaid-72077142-9206-437b-aa67-43ab5731df57 .node polygon,#mermaid-72077142-9206-437b-aa67-43ab5731df57 .node path{fill:#1f2020;stroke:#ccc;stroke-width:1px;}#mermaid-72077142-9206-437b-aa67-43ab5731df57 .rough-node .label text,#mermaid-72077142-9206-437b-aa67-43ab5731df57 .node .label text,#mermaid-72077142-9206-437b-aa67-43ab5731df57 .image-shape .label,#mermaid-72077142-9206-437b-aa67-43ab5731df57 .icon-shape .label{text-anchor:middle;}#mermaid-72077142-9206-437b-aa67-43ab5731df57 .node .katex path{fill:#000;stroke:#000;stroke-width:1px;}#mermaid-72077142-9206-437b-aa67-43ab5731df57 .rough-node .label,#mermaid-72077142-9206-437b-aa67-43ab5731df57 .node .label,#mermaid-72077142-9206-437b-aa67-43ab5731df57 .image-shape .label,#mermaid-72077142-9206-437b-aa67-43ab5731df57 .icon-shape .label{text-align:center;}#mermaid-72077142-9206-437b-aa67-43ab5731df57 .node.clickable{cursor:pointer;}#mermaid-72077142-9206-437b-aa67-43ab5731df57 .root .anchor path{fill:lightgrey!important;stroke-width:0;stroke:lightgrey;}#mermaid-72077142-9206-437b-aa67-43ab5731df57 .arrowheadPath{fill:lightgrey;}#mermaid-72077142-9206-437b-aa67-43ab5731df57 .edgePath .path{stroke:lightgrey;stroke-width:2.0px;}#mermaid-72077142-9206-437b-aa67-43ab5731df57 .flowchart-link{stroke:lightgrey;fill:none;}#mermaid-72077142-9206-437b-aa67-43ab5731df57 .edgeLabel{background-color:hsl(0, 0%, 34.4117647059%);text-align:center;}#mermaid-72077142-9206-437b-aa67-43ab5731df57 .edgeLabel p{background-color:hsl(0, 0%, 34.4117647059%);}#mermaid-72077142-9206-437b-aa67-43ab5731df57 .edgeLabel rect{opacity:0.5;background-color:hsl(0, 0%, 34.4117647059%);fill:hsl(0, 0%, 34.4117647059%);}#mermaid-72077142-9206-437b-aa67-43ab5731df57 .labelBkg{background-color:rgba(87.75, 87.75, 87.75, 0.5);}#mermaid-72077142-9206-437b-aa67-43ab5731df57 .cluster rect{fill:hsl(180, 1.5873015873%, 28.3529411765%);stroke:rgba(255, 255, 255, 0.25);stroke-width:1px;}#mermaid-72077142-9206-437b-aa67-43ab5731df57 .cluster text{fill:#F9FFFE;}#mermaid-72077142-9206-437b-aa67-43ab5731df57 .cluster span{color:#F9FFFE;}#mermaid-72077142-9206-437b-aa67-43ab5731df57 div.mermaidTooltip{position:absolute;text-align:center;max-width:200px;padding:2px;font-family:ui-sans-serif,-apple-system,BlinkMacSystemFont,"Segoe UI Variable Display","Segoe UI",Helvetica,"Apple Color Emoji","Noto Sans Arabic","Noto Sans Hebrew",Arial,sans-serif,"Segoe UI Emoji","Segoe UI Symbol";font-size:12px;background:hsl(20, 1.5873015873%, 12.3529411765%);border:1px solid rgba(255, 255, 255, 0.25);border-radius:2px;pointer-events:none;z-index:100;}#mermaid-72077142-9206-437b-aa67-43ab5731df57 .flowchartTitleText{text-anchor:middle;font-size:18px;fill:#ccc;}#mermaid-72077142-9206-437b-aa67-43ab5731df57 rect.text{fill:none;stroke-width:0;}#mermaid-72077142-9206-437b-aa67-43ab5731df57 .icon-shape,#mermaid-72077142-9206-437b-aa67-43ab5731df57 .image-shape{background-color:hsl(0, 0%, 34.4117647059%);text-align:center;}#mermaid-72077142-9206-437b-aa67-43ab5731df57 .icon-shape p,#mermaid-72077142-9206-437b-aa67-43ab5731df57 .image-shape p{background-color:hsl(0, 0%, 34.4117647059%);padding:2px;}#mermaid-72077142-9206-437b-aa67-43ab5731df57 .icon-shape rect,#mermaid-72077142-9206-437b-aa67-43ab5731df57 .image-shape rect{opacity:0.5;background-color:hsl(0, 0%, 34.4117647059%);fill:hsl(0, 0%, 34.4117647059%);}#mermaid-72077142-9206-437b-aa67-43ab5731df57 .label-icon{display:inline-block;height:1em;overflow:visible;vertical-align:-0.125em;}#mermaid-72077142-9206-437b-aa67-43ab5731df57 .node .label-icon path{fill:currentColor;stroke:revert;stroke-width:revert;}#mermaid-72077142-9206-437b-aa67-43ab5731df57 :root{--mermaid-font-family:"trebuchet ms",verdana,arial,sans-serif;}</style><g><marker id="mermaid-72077142-9206-437b-aa67-43ab5731df57_flowchart-v2-pointEnd" class="marker flowchart-v2" viewBox="0 0 10 10" refX="5" refY="5" markerUnits="userSpaceOnUse" markerWidth="8" markerHeight="8" orient="auto"><path d="M 0 0 L 10 5 L 0 10 z" class="arrowMarkerPath" style="stroke-width: 1; stroke-dasharray: 1, 0;"/></marker><marker id="mermaid-72077142-9206-437b-aa67-43ab5731df57_flowchart-v2-pointStart" class="marker flowchart-v2" viewBox="0 0 10 10" refX="4.5" refY="5" markerUnits="userSpaceOnUse" markerWidth="8" markerHeight="8" orient="auto"><path d="M 0 5 L 10 10 L 10 0 z" class="arrowMarkerPath" style="stroke-width: 1; stroke-dasharray: 1, 0;"/></marker><marker id="mermaid-72077142-9206-437b-aa67-43ab5731df57_flowchart-v2-circleEnd" class="marker flowchart-v2" viewBox="0 0 10 10" refX="11" refY="5" markerUnits="userSpaceOnUse" markerWidth="11" markerHeight="11" orient="auto"><circle cx="5" cy="5" r="5" class="arrowMarkerPath" style="stroke-width: 1; stroke-dasharray: 1, 0;"/></marker><marker id="mermaid-72077142-9206-437b-aa67-43ab5731df57_flowchart-v2-circleStart" class="marker flowchart-v2" viewBox="0 0 10 10" refX="-1" refY="5" markerUnits="userSpaceOnUse" markerWidth="11" markerHeight="11" orient="auto"><circle cx="5" cy="5" r="5" class="arrowMarkerPath" style="stroke-width: 1; stroke-dasharray: 1, 0;"/></marker><marker id="mermaid-72077142-9206-437b-aa67-43ab5731df57_flowchart-v2-crossEnd" class="marker cross flowchart-v2" viewBox="0 0 11 11" refX="12" refY="5.2" markerUnits="userSpaceOnUse" markerWidth="11" markerHeight="11" orient="auto"><path d="M 1,1 l 9,9 M 10,1 l -9,9" class="arrowMarkerPath" style="stroke-width: 2; stroke-dasharray: 1, 0;"/></marker><marker id="mermaid-72077142-9206-437b-aa67-43ab5731df57_flowchart-v2-crossStart" class="marker cross flowchart-v2" viewBox="0 0 11 11" refX="-1" refY="5.2" markerUnits="userSpaceOnUse" markerWidth="11" markerHeight="11" orient="auto"><path d="M 1,1 l 9,9 M 10,1 l -9,9" class="arrowMarkerPath" style="stroke-width: 2; stroke-dasharray: 1, 0;"/></marker></g><g class="subgraphs"/><g class="nodes"><g class="node default" id="flowchart-CM-0" transform="translate(210.96947001931215, 75)"><rect class="basic label-container" style="" x="-130" y="-63" width="260" height="126"/><g class="label" style="" transform="translate(-100, -48)"><rect/><foreignObject width="200" height="96"><div xmlns="http://www.w3.org/1999/xhtml" style="display: table; white-space: break-spaces; line-height: 1.5; max-width: 200px; text-align: center; width: 200px;"><span class="nodeLabel"><p>CustomerMaster<br />CustomerNumber and SalesOfficeCode<br />Segmentation rules</p></span></div></foreignObject></g></g><g class="node default" id="flowchart-CS-1" transform="translate(187.20469652354598, 236)"><rect class="basic label-container" style="" x="-130" y="-63" width="260" height="126"/><g class="label" style="" transform="translate(-100, -48)"><rect/><foreignObject width="200" height="96"><div xmlns="http://www.w3.org/1999/xhtml" style="display: table; white-space: break-spaces; line-height: 1.5; max-width: 200px; text-align: center; width: 200px;"><span class="nodeLabel"><p>Customer Segment Set<br />SoldToNumber and SalesOffice<br />CustomerSegment</p></span></div></foreignObject></g></g><g class="node default" id="flowchart-MM-2" transform="translate(144.18994937856394, 587.5)"><rect class="basic label-container" style="" x="-83.22916793823242" y="-27" width="166.45833587646484" height="54"/><g class="label" style="" transform="translate(-53.22916793823242, -12)"><rect/><foreignObject width="106.45833587646484" height="24"><div xmlns="http://www.w3.org/1999/xhtml" style="display: table-cell; white-space: nowrap; line-height: 1.5; max-width: 200px; text-align: center;"><span class="nodeLabel"><p>MaterialMaster</p></span></div></foreignObject></g></g><g class="node default" id="flowchart-MD-3" transform="translate(134.14583587646484, 724.5)"><rect class="basic label-container" style="" x="-122.14583587646484" y="-39" width="244.2916717529297" height="78"/><g class="label" style="" transform="translate(-92.14583587646484, -24)"><rect/><foreignObject width="184.2916717529297" height="48"><div xmlns="http://www.w3.org/1999/xhtml" style="display: table-cell; white-space: nowrap; line-height: 1.5; max-width: 200px; text-align: center;"><span class="nodeLabel"><p>Material Group Dimension<br />Deduplicated</p></span></div></foreignObject></g></g><g class="node default" id="flowchart-STIP_SRC-4" transform="translate(483.1838682764758, 260)"><rect class="basic label-container" style="" x="-130.9791717529297" y="-39" width="261.9583435058594" height="78"/><g class="label" style="" transform="translate(-100.97917175292969, -24)"><rect/><foreignObject width="201.95834350585938" height="48"><div xmlns="http://www.w3.org/1999/xhtml" style="display: table; white-space: break-spaces; line-height: 1.5; max-width: 200px; text-align: center; width: 200px;"><span class="nodeLabel"><p>STIP Source Fact<br />SoldToInvcProfitabilityModel</p></span></div></foreignObject></g></g><g class="node default" id="flowchart-STIP_F-5" transform="translate(314.0811550097234, 426.5)"><rect class="basic label-container" style="" x="-130" y="-75" width="260" height="150"/><g class="label" style="" transform="translate(-100, -60)"><rect/><foreignObject width="200" height="120"><div xmlns="http://www.w3.org/1999/xhtml" style="display: table; white-space: break-spaces; line-height: 1.5; max-width: 200px; text-align: center; width: 200px;"><span class="nodeLabel"><p>STIP Filtered<br />Period Office Product Division<br />Join to Customer Segment Set</p></span></div></foreignObject></g></g><g class="node default" id="flowchart-STIP_A-6" transform="translate(421.2916717529298, 724.5)"><rect class="basic label-container" style="" x="-130" y="-63" width="260" height="126"/><g class="label" style="" transform="translate(-100, -48)"><rect/><foreignObject width="200" height="96"><div xmlns="http://www.w3.org/1999/xhtml" style="display: table; white-space: break-spaces; line-height: 1.5; max-width: 200px; text-align: center; width: 200px;"><span class="nodeLabel"><p>STIP Aggregated<br />Period Office ProdDiv MatGrp<br />CustomerSegment</p></span></div></foreignObject></g></g><g class="node default" id="flowchart-CP_SRC-7" transform="translate(749.7672041529406, 260)"><rect class="basic label-container" style="" x="-100.60417175292969" y="-39" width="201.20834350585938" height="78"/><g class="label" style="" transform="translate(-70.60417175292969, -24)"><rect/><foreignObject width="141.20834350585938" height="48"><div xmlns="http://www.w3.org/1999/xhtml" style="display: table-cell; white-space: nowrap; line-height: 1.5; max-width: 200px; text-align: center;"><span class="nodeLabel"><p>CPDash Source Fact<br />CPdash profitability</p></span></div></foreignObject></g></g><g class="node default" id="flowchart-CP_F-8" transform="translate(670.87388527394, 426.5)"><rect class="basic label-container" style="" x="-130" y="-75" width="260" height="150"/><g class="label" style="" transform="translate(-100, -60)"><rect/><foreignObject width="200" height="120"><div xmlns="http://www.w3.org/1999/xhtml" style="display: table; white-space: break-spaces; line-height: 1.5; max-width: 200px; text-align: center; width: 200px;"><span class="nodeLabel"><p>CPDash Filtered<br />Period Office<br />Join to Customer Segment Set<br />Numeric normalization</p></span></div></foreignObject></g></g><g class="node default" id="flowchart-CP_A-9" transform="translate(670.87388527394, 575.5)"><rect class="basic label-container" style="" x="-101.375" y="-39" width="202.75" height="78"/><g class="label" style="" transform="translate(-71.375, -24)"><rect/><foreignObject width="142.75" height="48"><div xmlns="http://www.w3.org/1999/xhtml" style="display: table-cell; white-space: nowrap; line-height: 1.5; max-width: 200px; text-align: center;"><span class="nodeLabel"><p>CPDash Aggregated<br />Same grain as STIP</p></span></div></foreignObject></g></g><g class="node default" id="flowchart-CP_KPI-10" transform="translate(707.8229217529297, 724.5)"><rect class="basic label-container" style="" x="-121.53125" y="-75" width="243.0625" height="150"/><g class="label" style="" transform="translate(-91.53125, -60)"><rect/><foreignObject width="183.0625" height="120"><div xmlns="http://www.w3.org/1999/xhtml" style="display: table-cell; white-space: nowrap; line-height: 1.5; max-width: 200px; text-align: center;"><span class="nodeLabel"><p>CPDash KPI Layer<br />PPD Writeoff Percent<br />COGS Manual Adj Percent<br />Absorption Percent<br />Outbound Freight Percent</p></span></div></foreignObject></g></g><g class="node default" id="flowchart-HUB-11" transform="translate(428.9169010067166, 897.5)"><rect class="basic label-container" style="" x="-130" y="-63" width="260" height="126"/><g class="label" style="" transform="translate(-100, -48)"><rect/><foreignObject width="200" height="96"><div xmlns="http://www.w3.org/1999/xhtml" style="display: table; white-space: break-spaces; line-height: 1.5; max-width: 200px; text-align: center; width: 200px;"><span class="nodeLabel"><p>Final View<br />Join STIP Agg and CPDash KPI<br />Join Material Dim after agg</p></span></div></foreignObject></g></g><g class="node default" id="flowchart-CONSUME-12" transform="translate(428.9169010067166, 1034.5)"><rect class="basic label-container" style="" x="-117.515625" y="-39" width="235.03125" height="78"/><g class="label" style="" transform="translate(-87.515625, -24)"><rect/><foreignObject width="175.03125" height="48"><div xmlns="http://www.w3.org/1999/xhtml" style="display: table-cell; white-space: nowrap; line-height: 1.5; max-width: 200px; text-align: center;"><span class="nodeLabel"><p>Excel or Power BI<br />Single view consumption</p></span></div></foreignObject></g></g></g><g class="edges edgePaths"><path d="M210.969,138L210.969,140.083C210.969,142.167,210.969,146.333,210.608,148.888C210.246,151.443,209.522,152.386,208.688,153.219C207.855,154.052,206.912,154.776,204.147,155.138C201.381,155.5,196.793,155.5,194.027,155.862C191.262,156.224,190.319,156.948,189.486,157.781C188.652,158.614,187.929,159.557,187.567,161.445C187.205,163.333,187.205,166.167,187.205,167.583L187.205,169" id="L_CM_CS_0_0" class="edge-thickness-normal edge-pattern-solid edge-thickness-normal edge-pattern-solid flowchart-link" style="" marker-end="url(#mermaid-72077142-9206-437b-aa67-43ab5731df57_flowchart-v2-pointEnd)"/><path d="M144.19,614.5L144.19,616.583C144.19,618.667,144.19,622.833,143.828,625.388C143.466,627.943,142.742,628.886,141.909,629.719C141.076,630.552,140.133,631.276,139.654,631.638C139.175,632,139.161,632,138.682,632.362C138.203,632.724,137.26,633.448,136.427,634.281C135.594,635.114,134.87,636.057,134.508,643.945C134.146,651.833,134.146,666.667,134.146,674.083L134.146,681.5" id="L_MM_MD_0_0" class="edge-thickness-normal edge-pattern-solid edge-thickness-normal edge-pattern-solid flowchart-link" style="" marker-end="url(#mermaid-72077142-9206-437b-aa67-43ab5731df57_flowchart-v2-pointEnd)"/><path d="M143.871,299L143.871,304C143.871,309,143.871,319,144.233,324.471C144.595,329.943,145.319,330.886,146.152,331.719C146.986,332.552,147.929,333.276,167.879,333.638C187.83,334,226.789,334,246.74,334.362C266.691,334.724,267.633,335.448,268.467,336.281C269.3,337.114,270.024,338.057,270.386,339.945C270.748,341.833,270.748,344.667,270.748,346.083L270.748,347.5" id="L_CS_STIP_F_0_0" class="edge-thickness-normal edge-pattern-solid edge-thickness-normal edge-pattern-solid flowchart-link" style="" marker-end="url(#mermaid-72077142-9206-437b-aa67-43ab5731df57_flowchart-v2-pointEnd)"/><path d="M483.184,299L483.184,304C483.184,309,483.184,319,482.822,324.471C482.46,329.943,481.736,330.886,480.903,331.719C480.069,332.552,479.127,333.276,459.36,333.638C439.594,334,401.004,334,381.238,334.362C361.472,334.724,360.529,335.448,359.696,336.281C358.862,337.114,358.138,338.057,357.776,339.945C357.414,341.833,357.414,344.667,357.414,346.083L357.414,347.5" id="L_STIP_SRC_STIP_F_0_0" class="edge-thickness-normal edge-pattern-solid edge-thickness-normal edge-pattern-solid flowchart-link" style="" marker-end="url(#mermaid-72077142-9206-437b-aa67-43ab5731df57_flowchart-v2-pointEnd)"/><path d="M314.081,501.5L314.081,503.583C314.081,505.667,314.081,509.833,314.443,512.388C314.805,514.943,315.529,515.886,316.362,516.719C317.196,517.552,318.138,518.276,334.812,518.638C351.485,519,383.888,519,400.561,519.362C417.234,519.724,418.177,520.448,419.011,521.281C419.844,522.114,420.568,523.057,420.93,532.112C421.292,541.167,421.292,558.333,421.292,580.583C421.292,602.833,421.292,630.167,421.292,643.833L421.292,657.5" id="L_STIP_F_STIP_A_0_0" class="edge-thickness-normal edge-pattern-solid edge-thickness-normal edge-pattern-solid flowchart-link" style="" marker-end="url(#mermaid-72077142-9206-437b-aa67-43ab5731df57_flowchart-v2-pointEnd)"/><path d="M230.538,299L230.538,301.083C230.538,303.167,230.538,307.333,230.9,309.888C231.262,312.443,231.986,313.386,232.819,314.219C233.652,315.052,234.595,315.776,299.567,316.138C364.539,316.5,493.54,316.5,558.512,316.862C623.483,317.224,624.426,317.948,625.26,318.781C626.093,319.614,626.817,320.557,627.179,325.362C627.541,330.167,627.541,338.833,627.541,343.167L627.541,347.5" id="L_CS_CP_F_0_0" class="edge-thickness-normal edge-pattern-solid edge-thickness-normal edge-pattern-solid flowchart-link" style="" marker-end="url(#mermaid-72077142-9206-437b-aa67-43ab5731df57_flowchart-v2-pointEnd)"/><path d="M749.767,299L749.767,301.083C749.767,303.167,749.767,307.333,749.405,309.888C749.043,312.443,748.319,313.386,747.486,314.219C746.653,315.052,745.71,315.776,740.979,316.138C736.247,316.5,727.727,316.5,722.996,316.862C718.264,317.224,717.322,317.948,716.488,318.781C715.655,319.614,714.931,320.557,714.569,325.362C714.207,330.167,714.207,338.833,714.207,343.167L714.207,347.5" id="L_CP_SRC_CP_F_0_0" class="edge-thickness-normal edge-pattern-solid edge-thickness-normal edge-pattern-solid flowchart-link" style="" marker-end="url(#mermaid-72077142-9206-437b-aa67-43ab5731df57_flowchart-v2-pointEnd)"/><path d="M670.874,501.5L670.874,532.5" id="L_CP_F_CP_A_0_0" class="edge-thickness-normal edge-pattern-solid edge-thickness-normal edge-pattern-solid flowchart-link" style="" marker-end="url(#mermaid-72077142-9206-437b-aa67-43ab5731df57_flowchart-v2-pointEnd)"/><path d="M670.874,614.5L670.874,616.583C670.874,618.667,670.874,622.833,671.236,625.388C671.598,627.943,672.322,628.886,673.155,629.719C673.988,630.552,674.931,631.276,679.894,631.638C684.857,632,693.84,632,698.803,632.362C703.766,632.724,704.709,633.448,705.542,634.281C706.375,635.114,707.099,636.057,707.461,637.945C707.823,639.833,707.823,642.667,707.823,644.083L707.823,645.5" id="L_CP_A_CP_KPI_0_0" class="edge-thickness-normal edge-pattern-solid edge-thickness-normal edge-pattern-solid flowchart-link" style="" marker-end="url(#mermaid-72077142-9206-437b-aa67-43ab5731df57_flowchart-v2-pointEnd)"/><path d="M421.292,787.5L421.292,791.583C421.292,795.667,421.292,803.833,421.292,808.75C421.292,813.667,421.292,815.333,422.125,816.167C422.958,817,424.625,817,425.063,817C425.5,817,424.708,817,425.146,817C425.584,817,427.25,817,428.084,817.833C428.917,818.667,428.917,820.333,428.917,822.583C428.917,824.833,428.917,827.667,428.917,829.083L428.917,830.5" id="L_STIP_A_HUB_0_0" class="edge-thickness-normal edge-pattern-solid edge-thickness-normal edge-pattern-solid flowchart-link" style="" marker-end="url(#mermaid-72077142-9206-437b-aa67-43ab5731df57_flowchart-v2-pointEnd)"/><path d="M707.823,799.5L707.823,801.583C707.823,803.667,707.823,807.833,707.461,810.388C707.099,812.943,706.375,813.886,705.542,814.719C704.709,815.552,703.766,816.276,669.31,816.638C634.854,817,566.886,817,532.43,817.362C497.974,817.724,497.031,818.448,496.198,819.281C495.365,820.114,494.641,821.057,494.279,822.945C493.917,824.833,493.917,827.667,493.917,829.083L493.917,830.5" id="L_CP_KPI_HUB_0_0" class="edge-thickness-normal edge-pattern-solid edge-thickness-normal edge-pattern-solid flowchart-link" style="" marker-end="url(#mermaid-72077142-9206-437b-aa67-43ab5731df57_flowchart-v2-pointEnd)"/><path d="M134.146,763.5L134.146,771.583C134.146,779.667,134.146,795.833,134.508,804.388C134.87,812.943,135.594,813.886,136.427,814.719C137.26,815.552,138.203,816.276,175.303,816.638C212.403,817,285.66,817,322.76,817.362C359.86,817.724,360.803,818.448,361.636,819.281C362.469,820.114,363.193,821.057,363.555,822.945C363.917,824.833,363.917,827.667,363.917,829.083L363.917,830.5" id="L_MD_HUB_0_0" class="edge-thickness-normal edge-pattern-solid edge-thickness-normal edge-pattern-solid flowchart-link" style="" marker-end="url(#mermaid-72077142-9206-437b-aa67-43ab5731df57_flowchart-v2-pointEnd)"/><path d="M428.917,960.5L428.917,991.5" id="L_HUB_CONSUME_0_0" class="edge-thickness-normal edge-pattern-solid edge-thickness-normal edge-pattern-solid flowchart-link" style="" marker-end="url(#mermaid-72077142-9206-437b-aa67-43ab5731df57_flowchart-v2-pointEnd)"/></g><g class="edgeLabels"><g class="edgeLabel"><g class="label" transform="translate(0, 0)"><foreignObject width="0" height="0"><div xmlns="http://www.w3.org/1999/xhtml" class="labelBkg" style="display: table-cell; white-space: nowrap; line-height: 1.5; max-width: 200px; text-align: center;"><span class="edgeLabel"></span></div></foreignObject></g></g><g class="edgeLabel"><g class="label" transform="translate(0, 0)"><foreignObject width="0" height="0"><div xmlns="http://www.w3.org/1999/xhtml" class="labelBkg" style="display: table-cell; white-space: nowrap; line-height: 1.5; max-width: 200px; text-align: center;"><span class="edgeLabel"></span></div></foreignObject></g></g><g class="edgeLabel"><g class="label" transform="translate(0, 0)"><foreignObject width="0" height="0"><div xmlns="http://www.w3.org/1999/xhtml" class="labelBkg" style="display: table-cell; white-space: nowrap; line-height: 1.5; max-width: 200px; text-align: center;"><span class="edgeLabel"></span></div></foreignObject></g></g><g class="edgeLabel"><g class="label" transform="translate(0, 0)"><foreignObject width="0" height="0"><div xmlns="http://www.w3.org/1999/xhtml" class="labelBkg" style="display: table-cell; white-space: nowrap; line-height: 1.5; max-width: 200px; text-align: center;"><span class="edgeLabel"></span></div></foreignObject></g></g><g class="edgeLabel"><g class="label" transform="translate(0, 0)"><foreignObject width="0" height="0"><div xmlns="http://www.w3.org/1999/xhtml" class="labelBkg" style="display: table-cell; white-space: nowrap; line-height: 1.5; max-width: 200px; text-align: center;"><span class="edgeLabel"></span></div></foreignObject></g></g><g class="edgeLabel"><g class="label" transform="translate(0, 0)"><foreignObject width="0" height="0"><div xmlns="http://www.w3.org/1999/xhtml" class="labelBkg" style="display: table-cell; white-space: nowrap; line-height: 1.5; max-width: 200px; text-align: center;"><span class="edgeLabel"></span></div></foreignObject></g></g><g class="edgeLabel"><g class="label" transform="translate(0, 0)"><foreignObject width="0" height="0"><div xmlns="http://www.w3.org/1999/xhtml" class="labelBkg" style="display: table-cell; white-space: nowrap; line-height: 1.5; max-width: 200px; text-align: center;"><span class="edgeLabel"></span></div></foreignObject></g></g><g class="edgeLabel"><g class="label" transform="translate(0, 0)"><foreignObject width="0" height="0"><div xmlns="http://www.w3.org/1999/xhtml" class="labelBkg" style="display: table-cell; white-space: nowrap; line-height: 1.5; max-width: 200px; text-align: center;"><span class="edgeLabel"></span></div></foreignObject></g></g><g class="edgeLabel"><g class="label" transform="translate(0, 0)"><foreignObject width="0" height="0"><div xmlns="http://www.w3.org/1999/xhtml" class="labelBkg" style="display: table-cell; white-space: nowrap; line-height: 1.5; max-width: 200px; text-align: center;"><span class="edgeLabel"></span></div></foreignObject></g></g><g class="edgeLabel"><g class="label" transform="translate(0, 0)"><foreignObject width="0" height="0"><div xmlns="http://www.w3.org/1999/xhtml" class="labelBkg" style="display: table-cell; white-space: nowrap; line-height: 1.5; max-width: 200px; text-align: center;"><span class="edgeLabel"></span></div></foreignObject></g></g><g class="edgeLabel"><g class="label" transform="translate(0, 0)"><foreignObject width="0" height="0"><div xmlns="http://www.w3.org/1999/xhtml" class="labelBkg" style="display: table-cell; white-space: nowrap; line-height: 1.5; max-width: 200px; text-align: center;"><span class="edgeLabel"></span></div></foreignObject></g></g><g class="edgeLabel"><g class="label" transform="translate(0, 0)"><foreignObject width="0" height="0"><div xmlns="http://www.w3.org/1999/xhtml" class="labelBkg" style="display: table-cell; white-space: nowrap; line-height: 1.5; max-width: 200px; text-align: center;"><span class="edgeLabel"></span></div></foreignObject></g></g><g class="edgeLabel"><g class="label" transform="translate(0, 0)"><foreignObject width="0" height="0"><div xmlns="http://www.w3.org/1999/xhtml" class="labelBkg" style="display: table-cell; white-space: nowrap; line-height: 1.5; max-width: 200px; text-align: center;"><span class="edgeLabel"></span></div></foreignObject></g></g></g></svg>